<?xml version="1.0" encoding="UTF-8"?>
<svg version="1.1" xmlns="http://www.w3.org/2000/svg" width="373" height="373">
<path d="M0 0 C4.38500967 2.96633007 6.02514132 6.61956286 8.0390625 11.41796875 C8.34392578 12.13178711 8.64878906 12.84560547 8.96289062 13.58105469 C9.89376756 15.77277636 10.81199329 17.96939842 11.7265625 20.16796875 C12.23574219 21.38484375 12.74492187 22.60171875 13.26953125 23.85546875 C30.85043614 66.84148822 43.96534316 115.54628315 35.7265625 162.16796875 C35.5812207 162.99441895 35.43587891 163.82086914 35.28613281 164.67236328 C29.24029431 197.49004355 13.04618047 228.27474313 -10.8125 251.65625 C-13.28881147 254.09119451 -13.28881147 254.09119451 -15.265625 256.7109375 C-17.4312529 259.36109304 -19.71902051 261.35693081 -22.3984375 263.48046875 C-23.26726562 264.17785156 -24.13609375 264.87523437 -25.03125 265.59375 C-27.2734375 267.16796875 -27.2734375 267.16796875 -29.2734375 267.16796875 C-29.2734375 267.82796875 -29.2734375 268.48796875 -29.2734375 269.16796875 C-31.56940369 270.98153779 -33.85802677 272.65085597 -36.2734375 274.29296875 C-37.35081177 275.02894287 -37.35081177 275.02894287 -38.44995117 275.77978516 C-45.18307708 280.27831411 -52.18749391 283.94470933 -59.5234375 287.34960938 C-61.04556727 288.0614089 -62.55174702 288.80712351 -64.0546875 289.55859375 C-95.27900649 304.78526783 -136.10749365 307.43346873 -169.15625 296.86035156 C-187.33181362 290.60034284 -207.12139417 280.26826945 -219.7109375 265.35546875 C-220.2884375 264.67871094 -220.8659375 264.00195312 -221.4609375 263.3046875 C-222.0590625 262.59957031 -222.6571875 261.89445312 -223.2734375 261.16796875 C-224.58358081 259.66590991 -225.8959993 258.16583182 -227.2109375 256.66796875 C-228.23177083 255.50130208 -229.25260417 254.33463542 -230.2734375 253.16796875 C-241.36855468 262.95777802 -247.50149311 280.11568551 -248.51953125 294.69140625 C-248.64687086 297.25379105 -248.7718807 299.81629272 -248.89453125 302.37890625 C-249.59767988 309.41039252 -251.16407445 314.1721471 -256.2734375 319.16796875 C-261.69660673 322.18084054 -266.22570933 323.09670179 -272.31640625 321.69921875 C-277.6106462 320.03049021 -280.10360796 317.68257446 -283.2734375 313.16796875 C-288.68180476 302.35123424 -283.30642487 284.20316834 -280.2734375 273.16796875 C-279.9846875 272.02972656 -279.6959375 270.89148438 -279.3984375 269.71875 C-275.83693995 256.79242184 -269.44035525 244.76402102 -261.2734375 234.16796875 C-260.5721875 233.23984375 -259.8709375 232.31171875 -259.1484375 231.35546875 C-256.31775809 228.05300944 -253.41912583 224.9611376 -249.8359375 222.48046875 C-248.05803779 220.35805693 -248.05803779 220.35805693 -248.40234375 218.1875 C-248.75375943 216.49129674 -249.14309729 214.80274805 -249.55859375 213.12109375 C-255.41678503 188.92004126 -254.6774278 162.60170402 -246.2734375 139.16796875 C-245.88027344 138.01039063 -245.48710937 136.8528125 -245.08203125 135.66015625 C-242.31997289 127.94827052 -238.58439528 121.11453579 -234.2734375 114.16796875 C-233.75007813 113.29140625 -233.22671875 112.41484375 -232.6875 111.51171875 C-231.59555145 109.70185927 -230.44593555 107.92671583 -229.2734375 106.16796875 C-228.6134375 106.16796875 -227.9534375 106.16796875 -227.2734375 106.16796875 C-227.01433594 105.59175781 -226.75523437 105.01554687 -226.48828125 104.421875 C-225.17744368 101.98987088 -223.67745916 100.16084454 -221.8359375 98.10546875 C-221.23910156 97.43386719 -220.64226562 96.76226562 -220.02734375 96.0703125 C-219.44855469 95.44253906 -218.86976563 94.81476563 -218.2734375 94.16796875 C-217.74621094 93.59175781 -217.21898437 93.01554687 -216.67578125 92.421875 C-215.2734375 91.16796875 -215.2734375 91.16796875 -213.2734375 91.16796875 C-213.2734375 90.50796875 -213.2734375 89.84796875 -213.2734375 89.16796875 C-201.26938282 77.70377897 -183.89343649 68.10550436 -167.85693359 63.89526367 C-165.18576913 63.14328872 -162.60918619 62.23387985 -159.99609375 61.30078125 C-153.13710472 58.99980567 -146.17753725 57.54619093 -139.09341431 56.16030884 C-135.33372528 55.42405274 -131.57939273 54.66123006 -127.82421875 53.90234375 C-127.08445297 53.75352249 -126.34468719 53.60470123 -125.58250427 53.45137024 C-98.21610927 47.93163091 -72.05588717 42.10985074 -48.48828125 26.48828125 C-46.2734375 25.16796875 -46.2734375 25.16796875 -44.2734375 25.16796875 C-44.2734375 24.50796875 -44.2734375 23.84796875 -44.2734375 23.16796875 C-43.6134375 23.16796875 -42.9534375 23.16796875 -42.2734375 23.16796875 C-42.2734375 22.50796875 -42.2734375 21.84796875 -42.2734375 21.16796875 C-41.4896875 20.92046875 -40.7059375 20.67296875 -39.8984375 20.41796875 C-36.7879293 18.93677437 -36.65723282 18.19502101 -35.2734375 15.16796875 C-33.6297561 13.47862953 -31.9591499 11.81536951 -30.2734375 10.16796875 C-29.24148908 8.99011502 -28.22097169 7.80216749 -27.2109375 6.60546875 C-19.35589325 -2.61218521 -11.32392495 -6.0813671 0 0 Z M-23.1953125 50.390625 C-26.99348773 53.63906434 -31.11926629 56.39852128 -35.2734375 59.16796875 C-36.39492188 59.9259375 -36.39492188 59.9259375 -37.5390625 60.69921875 C-45.28657951 65.6534133 -53.70605263 68.92879796 -62.2734375 72.16796875 C-63.02931152 72.45816895 -63.78518555 72.74836914 -64.56396484 73.04736328 C-83.05720117 80.03352364 -102.58349525 83.7574243 -122.00390625 87.1953125 C-148.6210536 91.96645105 -173.62058984 98.70445488 -193.2734375 118.16796875 C-193.82902344 118.68617188 -194.38460937 119.204375 -194.95703125 119.73828125 C-197.22496686 121.88414667 -198.2650397 123.14277536 -199.2734375 126.16796875 C-199.9334375 126.16796875 -200.5934375 126.16796875 -201.2734375 126.16796875 C-209.79305421 137.37395109 -215.31323345 151.26834005 -217.2734375 165.16796875 C-217.4796875 166.36421875 -217.6859375 167.56046875 -217.8984375 168.79296875 C-219.10855999 179.66206893 -218.53903595 190.48729036 -216.2734375 201.16796875 C-208.64897176 199.58650284 -201.29748166 197.61078737 -193.93334961 195.07543945 C-189.7440654 193.63894479 -185.53950829 192.35592758 -181.2734375 191.16796875 C-165.09512656 186.61326409 -149.4991207 181.25306518 -135.2734375 172.16796875 C-134.37753906 171.65621094 -133.48164063 171.14445312 -132.55859375 170.6171875 C-130.16040339 169.37175411 -130.16040339 169.37175411 -129.2734375 167.16796875 C-128.4484375 166.69359375 -127.6234375 166.21921875 -126.7734375 165.73046875 C-123.98188267 164.35477334 -123.98188267 164.35477334 -123.2734375 161.16796875 C-121.60677083 160.50130208 -119.94010417 159.83463542 -118.2734375 159.16796875 C-117.7784375 157.68296875 -117.7784375 157.68296875 -117.2734375 156.16796875 C-116.6134375 156.16796875 -115.9534375 156.16796875 -115.2734375 156.16796875 C-114.5309375 155.40484375 -113.7884375 154.64171875 -113.0234375 153.85546875 C-108.91406621 149.83949226 -105.51625348 148.00468913 -99.7734375 147.91796875 C-96.20945569 148.03857727 -92.77164977 148.45038675 -89.2734375 149.16796875 C-89.2734375 149.82796875 -89.2734375 150.48796875 -89.2734375 151.16796875 C-88.4690625 151.97234375 -87.6646875 152.77671875 -86.8359375 153.60546875 C-83.58525714 156.85614911 -83.12369676 159.11758374 -83.0859375 163.54296875 C-83.19734325 169.29893224 -84.37472571 172.40010376 -88.3984375 176.54296875 C-92.24522917 180.21562582 -96.21775564 183.72852123 -100.2734375 187.16796875 C-101.08554688 187.86921875 -101.89765625 188.57046875 -102.734375 189.29296875 C-117.0982589 201.42434283 -132.75586922 209.50942592 -150.2734375 216.16796875 C-150.96824219 216.44382813 -151.66304688 216.7196875 -152.37890625 217.00390625 C-156.21830478 218.50401941 -160.00150308 219.63157787 -164.0234375 220.57421875 C-166.73964831 221.2909966 -169.36689807 222.19228332 -172.0234375 223.10546875 C-176.11988545 224.50362668 -180.185364 225.67697588 -184.3984375 226.66796875 C-189.93209828 227.98933102 -195.06418134 229.89756286 -200.2734375 232.16796875 C-200.2734375 236.9159005 -197.10315391 239.10127341 -193.9765625 242.46875 C-189.69081791 246.74830131 -185.10737876 250.52615737 -180.2734375 254.16796875 C-179.65339844 254.63847656 -179.03335938 255.10898437 -178.39453125 255.59375 C-156.53265436 270.60850661 -127.95488035 271.6367474 -102.6484375 267.33203125 C-84.49208386 263.73913765 -64.34333491 254.37766338 -50.2734375 242.16796875 C-50.2734375 241.50796875 -50.2734375 240.84796875 -50.2734375 240.16796875 C-49.190625 239.82765625 -49.190625 239.82765625 -48.0859375 239.48046875 C-44.69987873 237.90030799 -42.80666091 235.8960555 -40.2734375 233.16796875 C-39.5103125 232.44609375 -38.7471875 231.72421875 -37.9609375 230.98046875 C-36.04629799 229.33674602 -36.04629799 229.33674602 -36.2734375 227.16796875 C-35.726875 226.97847656 -35.1803125 226.78898438 -34.6171875 226.59375 C-31.17848449 224.50187234 -29.17258383 221.54234569 -26.7734375 218.35546875 C-25.82563219 217.11970625 -24.8777174 215.88402771 -23.9296875 214.6484375 C-23.47722656 214.0507959 -23.02476562 213.4531543 -22.55859375 212.83740234 C-21.44764079 211.39426094 -20.28664845 209.98989994 -19.1171875 208.59375 C-17.07382003 205.90533645 -15.71874206 203.21790279 -14.2734375 200.16796875 C-13.66886719 199.0284375 -13.06429687 197.88890625 -12.44140625 196.71484375 C-8.75387856 189.70474338 -5.50801251 182.67531011 -2.9609375 175.16796875 C-2.73108154 174.50635742 -2.50122559 173.84474609 -2.2644043 173.16308594 C2.00551116 159.98591732 3.28018738 146.80708196 3.1640625 133.04296875 C3.16135345 132.282724 3.15864441 131.52247925 3.15585327 130.73919678 C3.08651551 117.83967416 1.74871473 105.72886541 -1.2734375 93.16796875 C-1.66567117 91.39126509 -2.05494746 89.61390621 -2.44140625 87.8359375 C-5.59293317 73.65857407 -9.34635474 59.46006559 -15.2734375 46.16796875 C-19.18737192 46.16796875 -20.38294008 47.8795782 -23.1953125 50.390625 Z " fill="#17763A" transform="translate(310.2734375,26.83203125)"/>
<path d="M0 0 C0.66 0 1.32 0 2 0 C2.66 1.98 3.32 3.96 4 6 C4.33 6 4.66 6 5 6 C6.92851493 21.70362155 6.92851493 38.29637845 5 54 C4.01 54 3.02 54 2 54 C1.80495542 51.89651926 1.61921504 49.79217415 1.4375 47.6875 C1.33308594 46.51574219 1.22867187 45.34398437 1.12109375 44.13671875 C1 41 1 41 2 38 C2.77032649 25.31648484 1.23558107 12.6071989 0 0 Z " fill="#3F6E51" transform="translate(342,130)"/>
<path d="M0 0 C0.66 0 1.32 0 2 0 C2.73458346 3.94938915 3.12805655 7.68774681 3.1328125 11.703125 C3.13410156 12.76660156 3.13539063 13.83007812 3.13671875 14.92578125 C3.13285156 16.02277344 3.12898438 17.11976563 3.125 18.25 C3.12886719 19.33152344 3.13273437 20.41304687 3.13671875 21.52734375 C3.12881501 28.07954711 2.80155963 34.49622917 2 41 C1.34 41 0.68 41 0 41 C0 27.47 0 13.94 0 0 Z " fill="#1F5D38" transform="translate(313,142)"/>
<path d="M0 0 C0.66 0 1.32 0 2 0 C1.35702496 2.62573061 0.71075589 5.25057303 0.0625 7.875 C-0.11990234 8.62136719 -0.30230469 9.36773437 -0.49023438 10.13671875 C-1.88671875 15.7734375 -1.88671875 15.7734375 -3 18 C-3.66 18 -4.32 18 -5 18 C-4.97679687 18.82242187 -4.95359375 19.64484375 -4.9296875 20.4921875 C-4.81459123 27.61171361 -5.25339253 34.09154367 -7 41 C-7.99 41 -8.98 41 -10 41 C-9.64886592 31.57204999 -7.65044123 23.02930165 -5 14 C-4.71640625 12.99839844 -4.4328125 11.99679687 -4.140625 10.96484375 C-3.02521769 7.10075413 -1.88358536 3.56593296 0 0 Z " fill="#5A856C" transform="translate(36,283)"/>
<path d="M0 0 C1.485 0.495 1.485 0.495 3 1 C2.23816406 1.52787109 2.23816406 1.52787109 1.4609375 2.06640625 C-2.89388868 5.18981154 -6.35634396 8.28948181 -9.578125 12.58203125 C-11 14 -11 14 -12.8828125 14.39453125 C-16.08164597 15.3093268 -17.47402869 17.39311003 -19.625 19.875 C-20.40101562 20.75929688 -21.17703125 21.64359375 -21.9765625 22.5546875 C-24.08967 25.02282907 -24.08967 25.02282907 -26 28 C-26.66 28 -27.32 28 -28 28 C-28.33 28.99 -28.66 29.98 -29 31 C-29.66 30.67 -30.32 30.34 -31 30 C-30.01 28.515 -30.01 28.515 -29 27 C-28.34 27 -27.68 27 -27 27 C-26.74089844 26.42378906 -26.48179688 25.84757812 -26.21484375 25.25390625 C-24.90400618 22.82190213 -23.40402166 20.99287579 -21.5625 18.9375 C-20.96566406 18.26589844 -20.36882812 17.59429687 -19.75390625 16.90234375 C-18.88572266 15.96068359 -18.88572266 15.96068359 -18 15 C-17.47277344 14.42378906 -16.94554688 13.84757812 -16.40234375 13.25390625 C-15 12 -15 12 -13 12 C-13 11.34 -13 10.68 -13 10 C-11.171875 8.37890625 -11.171875 8.37890625 -8.75 6.5625 C-7.96109375 5.96566406 -7.1721875 5.36882812 -6.359375 4.75390625 C-5.58078125 4.17511719 -4.8021875 3.59632812 -4 3 C-2.95585938 2.11634766 -2.95585938 2.11634766 -1.890625 1.21484375 C-1.26671875 0.81394531 -0.6428125 0.41304688 0 0 Z " fill="#6B917A" transform="translate(110,106)"/>
<path d="M0 0 C0.66 0 1.32 0 2 0 C2.33 1.65 2.66 3.3 3 5 C3.66 5 4.32 5 5 5 C6.83091149 10.05680317 6.83091149 10.05680317 7 13 C5.70867882 15.70370372 4.28073892 16.92199343 2 19 C1.01 19.33 0.02 19.66 -1 20 C-1.33 20.66 -1.66 21.32 -2 22 C-4.5625 22.625 -4.5625 22.625 -7 23 C-5.80480507 19.4144152 -4.86343041 19.15195204 -1.8125 17.125 C0.47887803 15.40699633 0.47887803 15.40699633 2 13 C2.11130235 8.45780395 1.20726932 4.3632288 0 0 Z " fill="#437D5A" transform="translate(60,234)"/>
<path d="M0 0 C0.33 0 0.66 0 1 0 C0.93941406 0.89976562 0.87882812 1.79953125 0.81640625 2.7265625 C0.05105049 14.47771706 -0.49406943 26.23508074 -1 38 C-1.33 38 -1.66 38 -2 38 C-2.90699231 33.37145989 -3.15577495 28.88935303 -3.125 24.1875 C-3.1237915 23.48407471 -3.12258301 22.78064941 -3.12133789 22.0559082 C-3.09267632 18.22980954 -2.91816179 14.48285546 -2.4375 10.6875 C-1.7421932 7.06375867 -1.7421932 7.06375867 -3 4 C-1.625 1.8125 -1.625 1.8125 0 0 Z " fill="#587D67" transform="translate(93,184)"/>
<path d="M0 0 C2.97 0.495 2.97 0.495 6 1 C6 1.66 6 2.32 6 3 C6.598125 3.20625 7.19625 3.4125 7.8125 3.625 C10.98809831 5.62109037 11.72218179 7.48599992 13 11 C13.57783981 16.04943097 13.36913426 20.40980237 11 25 C10.34 25 9.68 25 9 25 C9.02320313 23.81921875 9.04640625 22.6384375 9.0703125 21.421875 C9.08907497 19.86458967 9.10727466 18.30729748 9.125 16.75 C9.14175781 15.97269531 9.15851563 15.19539062 9.17578125 14.39453125 C9.31935983 8.87637602 9.31935983 8.87637602 7 4 C4.52869082 2.84478498 4.52869082 2.84478498 2 2 C1.34 1.34 0.68 0.68 0 0 Z " fill="#467359" transform="translate(215,175)"/>
<path d="M0 0 C-0.22265625 1.890625 -0.22265625 1.890625 -1 4 C-2.99609375 5.046875 -2.99609375 5.046875 -5.4375 5.75 C-6.64212891 6.11351563 -6.64212891 6.11351563 -7.87109375 6.484375 C-10 7 -10 7 -12 7 C-12 7.66 -12 8.32 -12 9 C-12.845625 8.9175 -13.69125 8.835 -14.5625 8.75 C-19.03634062 9.07537023 -21.24893952 10.59932129 -25 13 C-24 10 -24 10 -20.54296875 8.02734375 C-19.09607996 7.32053791 -17.64397915 6.62432613 -16.1875 5.9375 C-15.46240234 5.58623047 -14.73730469 5.23496094 -13.99023438 4.87304688 C-12.6313674 4.21537018 -11.27048568 3.56182836 -9.90698242 2.91381836 C-8.58604063 2.28082833 -7.28704419 1.60072726 -6.0090332 0.88500977 C-4 0 -4 0 0 0 Z " fill="#518B64" transform="translate(139,93)"/>
<path d="M0 0 C0.66 0.33 1.32 0.66 2 1 C1.34 1.66 0.68 2.32 0 3 C-0.226875 3.7425 -0.45375 4.485 -0.6875 5.25 C-3.04884109 10.19757182 -7.10116045 13.29258919 -12.1875 15.1875 C-13.115625 15.455625 -14.04375 15.72375 -15 16 C-15.721875 16.556875 -16.44375 17.11375 -17.1875 17.6875 C-17.785625 18.120625 -18.38375 18.55375 -19 19 C-19.99 18.67 -20.98 18.34 -22 18 C-20.54550599 16.9944239 -19.08627557 15.99569565 -17.625 15 C-16.81289063 14.443125 -16.00078125 13.88625 -15.1640625 13.3125 C-13 12 -13 12 -11 12 C-11 11.34 -11 10.68 -11 10 C-10.34 10 -9.68 10 -9 10 C-9 9.34 -9 8.68 -9 8 C-8.21625 7.7525 -7.4325 7.505 -6.625 7.25 C-3.60938271 5.81399177 -3.21785344 4.99779308 -2 2 C-1.34 1.34 -0.68 0.68 0 0 Z " fill="#648E74" transform="translate(277,40)"/>
<path d="M0 0 C1.32 0.33 2.64 0.66 4 1 C-1.20319226 6.72351149 -7.59843568 10.73229045 -14 15 C-14.99 14.67 -15.98 14.34 -17 14 C-15.37633534 10.75267068 -12.24612161 10.29844864 -9 9 C-9.33 7.68 -9.66 6.36 -10 5 C-9.36191406 4.89042969 -8.72382813 4.78085938 -8.06640625 4.66796875 C-7.24011719 4.50941406 -6.41382813 4.35085937 -5.5625 4.1875 C-4.32693359 3.96126953 -4.32693359 3.96126953 -3.06640625 3.73046875 C-2.38449219 3.48941406 -1.70257813 3.24835938 -1 3 C-0.67 2.01 -0.34 1.02 0 0 Z " fill="#3F7954" transform="translate(205,214)"/>
<path d="M0 0 C0.495 0.99 0.495 0.99 1 2 C-10.90857648 5.72143015 -23.72900184 5.36577891 -36 4 C-36 3.67 -36 3.34 -36 3 C-34.80455566 2.91697632 -34.80455566 2.91697632 -33.58496094 2.83227539 C-29.97303917 2.57935665 -26.36152715 2.32099001 -22.75 2.0625 C-21.49574219 1.97548828 -20.24148437 1.88847656 -18.94921875 1.79882812 C-17.74394531 1.71181641 -16.53867188 1.62480469 -15.296875 1.53515625 C-14.18666992 1.456604 -13.07646484 1.37805176 -11.93261719 1.29711914 C-7.80431337 0.87885859 -4.19177155 -0.1164381 0 0 Z " fill="#588E6D" transform="translate(210,293)"/>
<path d="M0 0 C0.99 0.33 1.98 0.66 3 1 C2.34 1 1.68 1 1 1 C0.731875 1.969375 0.46375 2.93875 0.1875 3.9375 C-0.204375 4.948125 -0.59625 5.95875 -1 7 C-1.99 7.33 -2.98 7.66 -4 8 C-4.12375 8.61875 -4.2475 9.2375 -4.375 9.875 C-5 12 -5 12 -7.4375 13.6875 C-8.95504823 14.4647808 -10.47497723 15.23748862 -12 16 C-14.125 15.0625 -14.125 15.0625 -16 14 C-15.0925 13.4225 -14.185 12.845 -13.25 12.25 C-9.82144728 9.87638658 -7.19457419 7.28646451 -4.375 4.25 C-3 3 -3 3 -1 3 C-0.67 2.01 -0.34 1.02 0 0 Z " fill="#4D8562" transform="translate(196,180)"/>
<path d="M0 0 C1 3 1 3 0.24316406 4.80932617 C-1.0771443 6.94287936 -2.39851118 9.07349084 -3.75 11.1875 C-4.20632813 11.93708984 -4.66265625 12.68667969 -5.1328125 13.45898438 C-5.57882812 14.16732422 -6.02484375 14.87566406 -6.484375 15.60546875 C-6.89397461 16.25668701 -7.30357422 16.90790527 -7.72558594 17.57885742 C-8.14614258 18.04783447 -8.56669922 18.51681152 -9 19 C-9.99 19 -10.98 19 -12 19 C-11.6390625 18.56429688 -11.278125 18.12859375 -10.90625 17.6796875 C-7.72803395 13.72247205 -7.72803395 13.72247205 -7 8.8125 C-7 7.884375 -7 6.95625 -7 6 C-4.625 3.75 -4.625 3.75 -2 2 C-1.34 1.34 -0.68 0.68 0 0 Z " fill="#47765B" transform="translate(326,239)"/>
<path d="M0 0 C0.66 0 1.32 0 2 0 C2.12117188 1.14339844 2.24234375 2.28679687 2.3671875 3.46484375 C2.53597321 4.95578417 2.70527047 6.44666673 2.875 7.9375 C2.95363281 8.69224609 3.03226563 9.44699219 3.11328125 10.22460938 C3.33883808 12.15919299 3.66258974 14.08176019 4 16 C4.66 16.33 5.32 16.66 6 17 C5.34 19.97 4.68 22.94 4 26 C3.34 26 2.68 26 2 26 C1.34 17.42 0.68 8.84 0 0 Z " fill="#347155" transform="translate(57,207)"/>
<path d="M0 0 C3.42012367 1.83659918 6.23622595 3.75676004 8.03515625 7.2421875 C7.70515625 8.2321875 7.37515625 9.2221875 7.03515625 10.2421875 C6.47828125 9.4378125 5.92140625 8.6334375 5.34765625 7.8046875 C2.81651138 4.99990534 1.70936491 4.54837155 -1.96484375 4.2421875 C-1.96484375 3.5821875 -1.96484375 2.9221875 -1.96484375 2.2421875 C-3.38140168 2.214946 -4.7981142 2.19568283 -6.21484375 2.1796875 C-7.00375 2.16808594 -7.79265625 2.15648437 -8.60546875 2.14453125 C-10.87175377 2.23833444 -12.79373325 2.60977687 -14.96484375 3.2421875 C-14.96484375 2.5821875 -14.96484375 1.9221875 -14.96484375 1.2421875 C-10.14884436 -1.1658122 -5.07792086 -1.9584824 0 0 Z " fill="#20693C" transform="translate(216.96484375,175.7578125)"/>
<path d="M0 0 C2.31 0 4.62 0 7 0 C3.363946 1.97491258 -0.46786523 3.30211185 -4.375 4.625 C-5.02210938 4.85445313 -5.66921875 5.08390625 -6.3359375 5.3203125 C-10.35503375 6.6816193 -13.7647282 7.24913364 -18 7 C-17.01 6.67 -16.02 6.34 -15 6 C-15 5.34 -15 4.68 -15 4 C-9.68670645 1.91010454 -5.71271928 0.3887202 0 2 C0 1.34 0 0.68 0 0 Z " fill="#558B69" transform="translate(231,319)"/>
<path d="M0 0 C0 0.33 0 0.66 0 1 C-2.64 1.33 -5.28 1.66 -8 2 C-8 2.66 -8 3.32 -8 4 C-10.07553648 4.5534764 -11.84365964 5 -14 5 C-14.66 6.65 -15.32 8.3 -16 10 C-16.66 10 -17.32 10 -18 10 C-18 10.66 -18 11.32 -18 12 C-19.98 12.66 -21.96 13.32 -24 14 C-16.81957888 4.13888833 -12.63009529 -0.49529785 0 0 Z " fill="#538463" transform="translate(304,24)"/>
<path d="M0 0 C0.33 0 0.66 0 1 0 C0.36034318 5.07768817 -0.6233378 9.93101434 -1.9375 14.875 C-2.10701172 15.55046875 -2.27652344 16.2259375 -2.45117188 16.921875 C-2.90298348 18.63291817 -3.44477671 20.31966386 -4 22 C-4.66 22.33 -5.32 22.66 -6 23 C-6.54166288 15.7778282 -6.66116797 10.54257296 -2.19140625 4.62109375 C-0.79391239 2.89340847 -0.79391239 2.89340847 0 0 Z " fill="#446F55" transform="translate(66,296)"/>
<path d="M0 0 C0.33 0 0.66 0 1 0 C1.06058594 0.74765625 1.12117188 1.4953125 1.18359375 2.265625 C1.26738281 3.25046875 1.35117187 4.2353125 1.4375 5.25 C1.51871094 6.22453125 1.59992187 7.1990625 1.68359375 8.203125 C1.95074584 10.56461753 2.35371968 12.71901065 3 15 C3.66 15 4.32 15 5 15 C6.38232443 16.62626404 7.71937515 18.2925002 9 20 C6.8125 20.375 6.8125 20.375 4 20 C0.98059086 16.98059086 -1.49706491 14.35877078 -2 10 C-1.34 10 -0.68 10 0 10 C0 6.7 0 3.4 0 0 Z " fill="#3C7750" transform="translate(28,326)"/>
<path d="M0 0 C0.99 0.33 1.98 0.66 3 1 C4.17293889 7.3778552 5.29530838 13.50321562 5 20 C4.34 20 3.68 20 3 20 C2.49395076 17.60530271 1.99500483 15.20948283 1.5 12.8125 C1.28537109 11.80219727 1.28537109 11.80219727 1.06640625 10.77148438 C0.31930158 7.12490207 -0.17352282 3.72351043 0 0 Z " fill="#5E866D" transform="translate(307,111)"/>
<path d="M0 0 C0.33 0 0.66 0 1 0 C2.03368414 13.62931686 2.03368414 13.62931686 -2 18.875 C-2.96819639 19.94629137 -3.95746567 21.0009046 -5 22 C-5.66 21.67 -6.32 21.34 -7 21 C-6.690625 20.401875 -6.38125 19.80375 -6.0625 19.1875 C-4.89790296 16.91043228 -4.89790296 16.91043228 -4 14 C-3.34 14 -2.68 14 -2 14 C-1.93941406 13.07316406 -1.87882812 12.14632813 -1.81640625 11.19140625 C-1.73261719 9.99386719 -1.64882813 8.79632813 -1.5625 7.5625 C-1.48128906 6.36753906 -1.40007813 5.17257812 -1.31640625 3.94140625 C-1 1 -1 1 0 0 Z " fill="#58866B" transform="translate(59,324)"/>
<path d="M0 0 C5.26386487 -0.65798311 7.92096166 0.88405129 12.0703125 3.80859375 C14.05739661 5.03543718 15.72021535 5.55924163 18 6 C18 6.66 18 7.32 18 8 C18.66 8.33 19.32 8.66 20 9 C12.38355798 7.75140295 6.61172464 4.92995969 0 1 C0 0.67 0 0.34 0 0 Z " fill="#477B5B" transform="translate(120,313)"/>
<path d="M0 0 C0.66 0 1.32 0 2 0 C4.46456257 8.95604433 4.1920743 17.80177495 4 27 C3.67 27 3.34 27 3 27 C2.67 21.72 2.34 16.44 2 11 C1.34 11 0.68 11 0 11 C0 7.37 0 3.74 0 0 Z " fill="#587D65" transform="translate(342,119)"/>
<path d="M0 0 C2.31 0 4.62 0 7 0 C7.33 1.32 7.66 2.64 8 4 C7.34 4 6.68 4 6 4 C6 3.34 6 2.68 6 2 C3.22341366 3.58662077 0.81052096 5.16241061 -1.625 7.25 C-2.40875 7.8275 -3.1925 8.405 -4 9 C-4.99 8.67 -5.98 8.34 -7 8 C-7 7.34 -7 6.68 -7 6 C-5.01310269 4.64721885 -3.01254782 3.31431695 -1 2 C-0.67 1.34 -0.34 0.68 0 0 Z " fill="#4C7E61" transform="translate(289,71)"/>
<path d="M0 0 C1.0828125 0.40798828 1.0828125 0.40798828 2.1875 0.82421875 C7.11051434 2.56928725 12.05271605 3.60053579 17.1875 4.51171875 C17.1875 4.84171875 17.1875 5.17171875 17.1875 5.51171875 C12.5675 5.51171875 7.9475 5.51171875 3.1875 5.51171875 C3.1875 4.85171875 3.1875 4.19171875 3.1875 3.51171875 C1.2075 3.51171875 -0.7725 3.51171875 -2.8125 3.51171875 C-3.1425 2.52171875 -3.4725 1.53171875 -3.8125 0.51171875 C-1.8125 -0.48828125 -1.8125 -0.48828125 0 0 Z " fill="#457C59" transform="translate(147.8125,289.48828125)"/>
<path d="M0 0 C0.66 0 1.32 0 2 0 C2.19401633 1.81181405 2.38004375 3.62448532 2.5625 5.4375 C2.66691406 6.44683594 2.77132812 7.45617187 2.87890625 8.49609375 C2.93884766 9.73552734 2.93884766 9.73552734 3 11 C2.67 11.33 2.34 11.66 2 12 C1.76636119 13.84891946 1.58696365 15.70488031 1.4375 17.5625 C1.35371094 18.57441406 1.26992188 19.58632812 1.18359375 20.62890625 C1.12300781 21.41136719 1.06242187 22.19382813 1 23 C-3.22140891 16.66788664 -0.86601629 7.26835104 0 0 Z " fill="#427557" transform="translate(59,183)"/>
<path d="M0 0 C-1.4510074 1.83913695 -2.91101659 3.6711753 -4.375 5.5 C-5.18710937 6.5209375 -5.99921875 7.541875 -6.8359375 8.59375 C-7.55007813 9.3878125 -8.26421875 10.181875 -9 11 C-9.66 11 -10.32 11 -11 11 C-11.33 9.68 -11.66 8.36 -12 7 C-10.35 6.67 -8.7 6.34 -7 6 C-6.67 4.35 -6.34 2.7 -6 1 C-6.66 0.67 -7.32 0.34 -8 0 C-2.25 -1.125 -2.25 -1.125 0 0 Z " fill="#427757" transform="translate(315,261)"/>
<path d="M0 0 C0.33 0 0.66 0 1 0 C1.20705918 8.6274658 1.21462689 16.59628191 -1 25 C-1.66 25 -2.32 25 -3 25 C-3.05429959 23.25034642 -3.09292823 21.50020213 -3.125 19.75 C-3.15980469 18.28820312 -3.15980469 18.28820312 -3.1953125 16.796875 C-2.99331398 13.90425621 -2.32065976 12.52125954 -1 10 C-0.54935368 7.41467299 -0.54935368 7.41467299 -0.375 4.75 C-0.30023438 3.85796875 -0.22546875 2.9659375 -0.1484375 2.046875 C-0.09945313 1.37140625 -0.05046875 0.6959375 0 0 Z " fill="#4F7B62" transform="translate(345,174)"/>
<path d="M0 0 C0.99 0.33 1.98 0.66 3 1 C-0.54629308 5.51346392 -4.29418065 9.65732731 -9 13 C-9.66 13 -10.32 13 -11 13 C-11 11.35 -11 9.7 -11 8 C-10.06027344 7.63648438 -10.06027344 7.63648438 -9.1015625 7.265625 C-8.28429687 6.93046875 -7.46703125 6.5953125 -6.625 6.25 C-5.81289062 5.92515625 -5.00078125 5.6003125 -4.1640625 5.265625 C-1.66684861 3.80516056 -1.01755741 2.66130399 0 0 Z " fill="#3C7353" transform="translate(126,133)"/>
<path d="M0 0 C0 0.66 0 1.32 0 2 C-3.07909767 2.86996586 -6.16378631 3.71815852 -9.25 4.5625 C-10.12269531 4.80935547 -10.99539062 5.05621094 -11.89453125 5.31054688 C-12.73886719 5.53935547 -13.58320313 5.76816406 -14.453125 6.00390625 C-15.22817383 6.21861572 -16.00322266 6.4333252 -16.80175781 6.65454102 C-19.19024018 7.0298967 -20.720964 6.74681558 -23 6 C-16.375 4 -16.375 4 -13 4 C-13 3.34 -13 2.68 -13 2 C-4.57142857 -0.28571429 -4.57142857 -0.28571429 0 0 Z " fill="#56896C" transform="translate(186,113)"/>
<path d="M0 0 C-1 3 -1 3 -3.5 4.6875 C-7.82595742 6.30973403 -11.44061947 6.27356283 -16 6 C-16.33 6.66 -16.66 7.32 -17 8 C-17.66 7.34 -18.32 6.68 -19 6 C-16.39802798 4.99394407 -13.79370638 3.99497475 -11.1875 3 C-10.08051758 2.57074219 -10.08051758 2.57074219 -8.95117188 2.1328125 C-8.23896484 1.86210937 -7.52675781 1.59140625 -6.79296875 1.3125 C-6.1383667 1.06113281 -5.48376465 0.80976563 -4.80932617 0.55078125 C-3 0 -3 0 0 0 Z " fill="#4A8665" transform="translate(232,286)"/>
<path d="M0 0 C0.66 0.33 1.32 0.66 2 1 C-1.63983097 3.22956436 -5.33216039 5.29179208 -9.125 7.25 C-10.67574219 8.06210938 -10.67574219 8.06210938 -12.2578125 8.890625 C-15 10 -15 10 -18 9 C-17.67 8.01 -17.34 7.02 -17 6 C-15.02 6.495 -15.02 6.495 -13 7 C-12.34 6.01 -11.68 5.02 -11 4 C-10.34 4 -9.68 4 -9 4 C-8.67 3.34 -8.34 2.68 -8 2 C-5.67284 1.62599214 -3.33882138 1.29235267 -1 1 C-0.67 0.67 -0.34 0.34 0 0 Z " fill="#5A8D70" transform="translate(185,230)"/>
<path d="M0 0 C1.32 0.33 2.64 0.66 4 1 C4 3.31 4 5.62 4 8 C4.66 8 5.32 8 6 8 C6.33 11.3 6.66 14.6 7 18 C6.34 18 5.68 18 5 18 C4.16320723 15.37605694 3.33043058 12.75095616 2.5 10.125 C2.26152344 9.37863281 2.02304687 8.63226563 1.77734375 7.86328125 C0 2.2265625 0 2.2265625 0 0 Z " fill="#447353" transform="translate(300,88)"/>
<path d="M0 0 C0.66 0 1.32 0 2 0 C1.25 9 1.25 9 -2 12 C-2.99 12 -3.98 12 -5 12 C-4.54738642 10.56068883 -4.08767021 9.12361001 -3.625 7.6875 C-3.24214844 6.48673828 -3.24214844 6.48673828 -2.8515625 5.26171875 C-2 3 -2 3 0 0 Z " fill="#4A8261" transform="translate(71,150)"/>
<path d="M0 0 C0.66 0 1.32 0 2 0 C2.67668949 2.20528272 3.34093498 4.41438609 4 6.625 C4.37125 7.85476562 4.7425 9.08453125 5.125 10.3515625 C5.93727719 13.73846826 6.17041013 16.53854429 6 20 C3.12440426 15.68660639 1 10.26992248 1 5 C0.34 5 -0.32 5 -1 5 C-0.67 3.35 -0.34 1.7 0 0 Z " fill="#467157" transform="translate(334,86)"/>
<path d="M0 0 C0.33 1.32 0.66 2.64 1 4 C-5.93 3.505 -5.93 3.505 -13 3 C-13 3.66 -13 4.32 -13 5 C-15.64 5 -18.28 5 -21 5 C-17.61645552 3.09260973 -14.27713656 2.23265257 -10.5 1.375 C-9.3759375 1.11460938 -8.251875 0.85421875 -7.09375 0.5859375 C-4 0 -4 0 0 0 Z " fill="#629677" transform="translate(189,80)"/>
<path d="M0 0 C1.32 0.33 2.64 0.66 4 1 C2.45730076 5.72065967 0.92205381 10.41664092 -1 15 C-1.66 15 -2.32 15 -3 15 C-3.25 9.375 -3.25 9.375 -1 6 C-0.34 6 0.32 6 1 6 C0.67 4.02 0.34 2.04 0 0 Z " fill="#3F6C4F" transform="translate(98,163)"/>
<path d="M0 0 C0.66 0.33 1.32 0.66 2 1 C-3.03320206 6.77505724 -8.03739811 12.17917294 -14 17 C-14.66 16.67 -15.32 16.34 -16 16 C-15.113125 15.278125 -14.22625 14.55625 -13.3125 13.8125 C-8.32661265 9.64588991 -4.09161784 5.02684477 0 0 Z " fill="#688D75" transform="translate(283,245)"/>
<path d="M0 0 C-2 3 -2 3 -3.8046875 3.625 C-4.48789063 3.74875 -5.17109375 3.8725 -5.875 4 C-9.23707395 4.72131768 -11.41445222 5.62991454 -14 8 C-15.32 7.34 -16.64 6.68 -18 6 C-17.01 5.5875 -16.02 5.175 -15 4.75 C-11.4796865 3.26173738 -8.14156553 1.51814417 -4.796875 -0.328125 C-3 -1 -3 -1 0 0 Z M-16 8 C-14 9 -14 9 -14 9 Z " fill="#588F6F" transform="translate(256,60)"/>
<path d="M0 0 C0 0.99 0 1.98 0 3 C-1.258125 2.9175 -2.51625 2.835 -3.8125 2.75 C-8.92876138 2.7094591 -12.9481673 4.24730155 -17.6171875 6.22265625 C-20 7 -20 7 -23 6 C-20.91780951 5.18457569 -18.83420239 4.37276811 -16.75 3.5625 C-15.58984375 3.11003906 -14.4296875 2.65757813 -13.234375 2.19140625 C-8.54458386 0.46388657 -5.0153241 -0.11398464 0 0 Z " fill="#6A9D7E" transform="translate(163,86)"/>
<path d="M0 0 C0 3 0 3 -1.375 4.6875 C-3 6 -3 6 -5 6 C-5.268125 6.639375 -5.53625 7.27875 -5.8125 7.9375 C-7 10 -7 10 -10 11 C-10 10.34 -10 9.68 -10 9 C-10.66 8.67 -11.32 8.34 -12 8 C-10.35 8 -8.7 8 -7 8 C-7.33 7.01 -7.66 6.02 -8 5 C-7.01 4.34 -6.02 3.68 -5 3 C-4.67 2.34 -4.34 1.68 -4 1 C-1.9375 0.375 -1.9375 0.375 0 0 Z " fill="#4B795B" transform="translate(221,202)"/>
<path d="M0 0 C-2.74755487 0.69888677 -5.49731197 1.3843988 -8.25 2.0625 C-9.02730469 2.26166016 -9.80460938 2.46082031 -10.60546875 2.66601562 C-11.35957031 2.84970703 -12.11367187 3.03339844 -12.890625 3.22265625 C-13.58188477 3.39547119 -14.27314453 3.56828613 -14.98535156 3.74633789 C-17.25070809 4.03156637 -18.8368312 3.68076195 -21 3 C-20.01 3 -19.02 3 -18 3 C-18 2.34 -18 1.68 -18 1 C-14.83187852 0.28461773 -11.65726279 -0.21588823 -8.4375 -0.625 C-7.32181641 -0.76808594 -7.32181641 -0.76808594 -6.18359375 -0.9140625 C-3.90483317 -1.00374539 -2.18715828 -0.59313738 0 0 Z " fill="#6B9779" transform="translate(216,109)"/>
<path d="M0 0 C0 0.99 0 1.98 0 3 C-2.4140625 4.7890625 -2.4140625 4.7890625 -5.625 6.625 C-6.66914063 7.23601562 -7.71328125 7.84703125 -8.7890625 8.4765625 C-11.94564519 9.97421122 -14.545911 10.61621233 -18 11 C-15.57244264 8.57244264 -13.10810492 7.42454809 -10 6 C-9.34 6 -8.68 6 -8 6 C-8 5.01 -8 4.02 -8 3 C-6.865625 2.690625 -5.73125 2.38125 -4.5625 2.0625 C-1.21224901 1.37075469 -1.21224901 1.37075469 0 0 Z " fill="#688C78" transform="translate(277,83)"/>
<path d="M0 0 C0.66 0.33 1.32 0.66 2 1 C-1.0654707 4.53708158 -3.58640374 5.62075117 -8 7 C-8.721875 7.556875 -9.44375 8.11375 -10.1875 8.6875 C-10.785625 9.120625 -11.38375 9.55375 -12 10 C-12.99 9.67 -13.98 9.34 -15 9 C-13.25156882 7.87256334 -11.5011906 6.7481458 -9.75 5.625 C-8.77546875 4.99851562 -7.8009375 4.37203125 -6.796875 3.7265625 C-2.18608936 0.88023952 -2.18608936 0.88023952 0 0 Z " fill="#447E5C" transform="translate(270,49)"/>
<path d="M0 0 C0.33 0 0.66 0 1 0 C0.03644647 10.55808656 0.03644647 10.55808656 -1 15 C-1.99 15 -2.98 15 -4 15 C-4 13.02 -4 11.04 -4 9 C-3.01 8.67 -2.02 8.34 -1 8 C-0.67 5.36 -0.34 2.72 0 0 Z " fill="#437B59" transform="translate(30,309)"/>
<path d="M0 0 C2.97 0.495 2.97 0.495 6 1 C6 1.66 6 2.32 6 3 C6.61875 3.268125 7.2375 3.53625 7.875 3.8125 C10 5 10 5 12 8 C12.125 11.1875 12.125 11.1875 12 14 C7 6.5 7 6.5 7 4 C6.21625 3.71125 5.4325 3.4225 4.625 3.125 C2 2 2 2 0 0 Z " fill="#6E907A" transform="translate(215,175)"/>
<path d="M0 0 C0.99 0.33 1.98 0.66 3 1 C0.66153846 8.50769231 0.66153846 8.50769231 -2.6875 11 C-3.450625 11.33 -4.21375 11.66 -5 12 C-4.33333333 10.33333333 -3.66666667 8.66666667 -3 7 C-2.649375 6.113125 -2.29875 5.22625 -1.9375 4.3125 C-1 2 -1 2 0 0 Z " fill="#1C6A38" transform="translate(46,266)"/>
<path d="M0 0 C0.66 0 1.32 0 2 0 C1.52797514 4.24822374 -0.96655518 6.19989709 -4 9 C-4.66 8.34 -5.32 7.68 -6 7 C-5.04882866 5.8274869 -4.08882991 4.66212985 -3.125 3.5 C-2.59132812 2.8503125 -2.05765625 2.200625 -1.5078125 1.53125 C-0.76144531 0.77328125 -0.76144531 0.77328125 0 0 Z " fill="#3E7856" transform="translate(52,258)"/>
<path d="M0 0 C1.6990169 2.0683684 2.89762624 3.55211478 3.5 6.1875 C3.665 6.785625 3.83 7.38375 4 8 C4.99 8.33 5.98 8.66 7 9 C7.33 10.98 7.66 12.96 8 15 C7.34 15 6.68 15 6 15 C2.91962287 10.58032846 0 5.45204101 0 0 Z " fill="#26603A" transform="translate(315,38)"/>
<path d="M0 0 C-0.71027344 0.17015625 -1.42054688 0.3403125 -2.15234375 0.515625 C-3.07144531 0.75796875 -3.99054688 1.0003125 -4.9375 1.25 C-6.31228516 1.59804687 -6.31228516 1.59804687 -7.71484375 1.953125 C-10.19151441 2.76632566 -10.19151441 2.76632566 -10.81640625 5.109375 C-10.87699219 5.73328125 -10.93757812 6.3571875 -11 7 C-11.66 7 -12.32 7 -13 7 C-13.33 6.34 -13.66 5.68 -14 5 C-16.02463255 4.34786708 -16.02463255 4.34786708 -18 4 C-15.56592995 3.13475247 -13.12856816 2.28257135 -10.6875 1.4375 C-9.99720703 1.19064453 -9.30691406 0.94378906 -8.59570312 0.68945312 C-3.33984375 -1.11328125 -3.33984375 -1.11328125 0 0 Z " fill="#689D79" transform="translate(145,214)"/>
<path d="M0 0 C0.33 0 0.66 0 1 0 C2.00926479 4.15626368 2.10239579 8.04365094 2.0625 12.3125 C2.05347656 13.56675781 2.04445312 14.82101562 2.03515625 16.11328125 C2.01775391 17.54220703 2.01775391 17.54220703 2 19 C1.67 19 1.34 19 1 19 C0.855625 17.7625 0.71125 16.525 0.5625 15.25 C0.29632877 13.04733665 0.01901179 11.06273891 -0.625 8.9375 C-1.21781173 5.87463938 -0.52654563 3.04226366 0 0 Z " fill="#265339" transform="translate(59,314)"/>
<path d="M0 0 C0.66 0 1.32 0 2 0 C2.33 0.66 2.66 1.32 3 2 C3.66 2.28875 4.32 2.5775 5 2.875 C7 4 7 4 7.625 5.9375 C7.74875 6.618125 7.8725 7.29875 8 8 C8.99 9.485 8.99 9.485 10 11 C6.8510285 9.63088196 4.9521513 8.1247864 2.75 5.5 C2.22921875 4.8915625 1.7084375 4.283125 1.171875 3.65625 C0 2 0 2 0 0 Z " fill="#608A70" transform="translate(80,278)"/>
<path d="M0 0 C1.32 0.33 2.64 0.66 4 1 C5.7578125 6.95703125 5.7578125 6.95703125 6 9 C5.01 10.485 5.01 10.485 4 12 C3.3291288 10.3767313 2.66342971 8.75132422 2 7.125 C1.62875 6.22007813 1.2575 5.31515625 0.875 4.3828125 C0 2 0 2 0 0 Z " fill="#245938" transform="translate(324,61)"/>
<path d="M0 0 C-0.66 0 -1.32 0 -2 0 C-2.165 0.639375 -2.33 1.27875 -2.5 1.9375 C-4 4 -4 4 -5.9140625 4.48828125 C-7.93575155 4.7275978 -9.96841939 4.86893028 -12 5 C-12 4.34 -12 3.68 -12 3 C-10.5682384 2.30062798 -9.12932968 1.61587282 -7.6875 0.9375 C-6.48673828 0.36322266 -6.48673828 0.36322266 -5.26171875 -0.22265625 C-3 -1 -3 -1 0 0 Z " fill="#1D6A3A" transform="translate(166,207)"/>
<path d="M0 0 C1.8125 0.8125 1.8125 0.8125 2.8125 2.8125 C-1.6425 4.2975 -1.6425 4.2975 -6.1875 5.8125 C-6.1875 4.8225 -6.1875 3.8325 -6.1875 2.8125 C-4.07532149 0.70032149 -3.0364589 -0.26026791 0 0 Z " fill="#3E7C54" transform="translate(257.1875,92.1875)"/>
<path d="M0 0 C0.99 0 1.98 0 3 0 C2.67 3.96 2.34 7.92 2 12 C1.34 12 0.68 12 0 12 C0 8.04 0 4.08 0 0 Z " fill="#265738" transform="translate(26,324)"/>
<path d="M0 0 C1.69141656 0.08963062 3.37959602 0.24577676 5.0625 0.4375 C6.44115234 0.59025391 6.44115234 0.59025391 7.84765625 0.74609375 C8.55792969 0.82988281 9.26820313 0.91367187 10 1 C10 1.33 10 1.66 10 2 C4.94997778 3.03590199 0.12583611 3.10251672 -5 3 C-4.360625 2.690625 -3.72125 2.38125 -3.0625 2.0625 C-1.06389179 1.1654837 -1.06389179 1.1654837 0 0 Z " fill="#407C58" transform="translate(202,325)"/>
<path d="M0 0 C0.33 0.66 0.66 1.32 1 2 C1.66 2.33 2.32 2.66 3 3 C2.34 5.97 1.68 8.94 1 12 C0.34 12 -0.32 12 -1 12 C-1.02698189 10.37509046 -1.04638757 8.75005367 -1.0625 7.125 C-1.07410156 6.22007812 -1.08570313 5.31515625 -1.09765625 4.3828125 C-1 2 -1 2 0 0 Z " fill="#4B7F61" transform="translate(60,221)"/>
<path d="M0 0 C5.75 -0.125 5.75 -0.125 8 1 C8 1.99 8 2.98 8 4 C8.66 4.66 9.32 5.32 10 6 C5.16743695 5.58578031 3.17320782 3.53586014 0 0 Z " fill="#4E8A67" transform="translate(110,307)"/>
<path d="M0 0 C0.66 0 1.32 0 2 0 C0.43358249 4.30764815 -1.68336156 8.06171464 -4 12 C-4.66 11.67 -5.32 11.34 -6 11 C-5.37755401 9.72791378 -4.75193233 8.45738118 -4.125 7.1875 C-3.77695312 6.47980469 -3.42890625 5.77210938 -3.0703125 5.04296875 C-2 3 -2 3 0 0 Z " fill="#628A71" transform="translate(44,268)"/>
<path d="M0 0 C2.64 0 5.28 0 8 0 C5.75043698 2.24956302 3.93676737 3.00510965 1 4.1875 C0.113125 4.55230469 -0.77375 4.91710937 -1.6875 5.29296875 C-4 6 -4 6 -6 5 C-3 3 -3 3 0 3 C0 2.01 0 1.02 0 0 Z " fill="#5C8F70" transform="translate(114,254)"/>
<path d="M0 0 C0.66 0 1.32 0 2 0 C2 1.65 2 3.3 2 5 C4.64 4.34 7.28 3.68 10 3 C10 3.66 10 4.32 10 5 C8.5225254 5.36116046 7.04295325 5.71375048 5.5625 6.0625 C4.73878906 6.25972656 3.91507812 6.45695313 3.06640625 6.66015625 C2.38449219 6.77230469 1.70257813 6.88445312 1 7 C0 6 0 6 -0.0625 2.9375 C-0.041875 1.968125 -0.02125 0.99875 0 0 Z " fill="#7F9D88" transform="translate(92,223)"/>
<path d="M0 0 C0.33 0.66 0.66 1.32 1 2 C-0.45264038 2.8638129 -1.9123163 3.71580454 -3.375 4.5625 C-4.59316406 5.27599609 -4.59316406 5.27599609 -5.8359375 6.00390625 C-6.55007812 6.33261719 -7.26421875 6.66132813 -8 7 C-8.66 6.67 -9.32 6.34 -10 6 C-9.01 5.34 -8.02 4.68 -7 4 C-7.33 3.34 -7.66 2.68 -8 2 C-5.36 1.34 -2.72 0.68 0 0 Z " fill="#4D7F62" transform="translate(140,127)"/>
<path d="M0 0 C2.31 0 4.62 0 7 0 C-1.02058824 4.15882353 -1.02058824 4.15882353 -4.3125 3.625 C-4.869375 3.41875 -5.42625 3.2125 -6 3 C-6 2.34 -6 1.68 -6 1 C-3.03 1.495 -3.03 1.495 0 2 C0 1.34 0 0.68 0 0 Z " fill="#4E8263" transform="translate(231,319)"/>
<path d="M0 0 C0.6875 1.625 0.6875 1.625 1 4 C-0.4375 7.25 -0.4375 7.25 -2 10 C-2.66 10 -3.32 10 -4 10 C-3.38461538 3.47692308 -3.38461538 3.47692308 -1.4375 1.0625 C-0.7259375 0.5365625 -0.7259375 0.5365625 0 0 Z " fill="#598166" transform="translate(333,225)"/>
<path d="M0 0 C0.66 0 1.32 0 2 0 C0.74194623 4.50802601 -0.90407165 7.4912812 -4 11 C-4.66 10.67 -5.32 10.34 -6 10 C-5.05065487 8.32819726 -4.09026687 6.66266064 -3.125 5 C-2.59132813 4.071875 -2.05765625 3.14375 -1.5078125 2.1875 C-1.01023437 1.465625 -0.51265625 0.74375 0 0 Z " fill="#6B8F79" transform="translate(299,220)"/>
<path d="M0 0 C0.33 0.99 0.66 1.98 1 3 C-0.8125 4.5625 -0.8125 4.5625 -3 6 C-3.99 5.67 -4.98 5.34 -6 5 C-6 4.34 -6 3.68 -6 3 C-2.53846154 0 -2.53846154 0 0 0 Z " fill="#3D7757" transform="translate(288,74)"/>
<path d="M0 0 C0.66 0.33 1.32 0.66 2 1 C1.67 1.33 1.34 1.66 1 2 C1.66 2.66 2.32 3.32 3 4 C2.01 4 1.02 4 0 4 C-0.33 4.66 -0.66 5.32 -1 6 C-3.5625 6.625 -3.5625 6.625 -6 7 C-4.77065985 3.31197956 -3.06140622 2.27643027 0 0 Z " fill="#5C8B6D" transform="translate(59,250)"/>
<path d="M0 0 C2.97 0.495 2.97 0.495 6 1 C3.22719294 4.08089673 0.93673644 5.68775452 -3 7 C-2.34 6.01 -1.68 5.02 -1 4 C-0.34 4 0.32 4 1 4 C0.67 2.68 0.34 1.36 0 0 Z " fill="#4E8368" transform="translate(275,294)"/>
<path d="M0 0 C-2.31 1.65 -4.62 3.3 -7 5 C-7.33 3.68 -7.66 2.36 -8 1 C-2.25 -1.125 -2.25 -1.125 0 0 Z " fill="#49765C" transform="translate(301,278)"/>
<path d="M0 0 C0.66 0 1.32 0 2 0 C1.54177532 3.46941546 1.10868317 6.67395049 0 10 C-0.66 10 -1.32 10 -2 10 C-1.34 6.7 -0.68 3.4 0 0 Z " fill="#689378" transform="translate(62,172)"/>
<path d="M0 0 C0.99 0.33 1.98 0.66 3 1 C3.33 3.64 3.66 6.28 4 9 C3.67 8.01 3.34 7.02 3 6 C2.01 5.67 1.02 5.34 0 5 C0 3.35 0 1.7 0 0 Z " fill="#46815E" transform="translate(307,111)"/>
<path d="M0 0 C1.32 0.33 2.64 0.66 4 1 C4 3.31 4 5.62 4 8 C3.34 8 2.68 8 2 8 C1.34 5.36 0.68 2.72 0 0 Z " fill="#5B896B" transform="translate(300,88)"/>
<path d="M0 0 C2.97 0.495 2.97 0.495 6 1 C3.60236815 3.39763185 2.66726502 3.34280586 -0.625 3.625 C-1.44226562 3.69976562 -2.25953125 3.77453125 -3.1015625 3.8515625 C-3.72804687 3.90054687 -4.35453125 3.94953125 -5 4 C-5 3.67 -5 3.34 -5 3 C-3.35 3 -1.7 3 0 3 C0 2.01 0 1.02 0 0 Z " fill="#588A6B" transform="translate(46,345)"/>
<path d="M0 0 C3 1 3 1 4.25 3.3125 C5.04631835 6.16597407 4.8214856 7.24802325 4 10 C3.32845067 8.71086513 2.66291141 7.41859796 2 6.125 C1.62875 5.40570313 1.2575 4.68640625 0.875 3.9453125 C0 2 0 2 0 0 Z " fill="#688472" transform="translate(322,53)"/>
<path d="M0 0 C1.32 0.33 2.64 0.66 4 1 C2.35 2.65 0.7 4.3 -1 6 C-1.66 5.67 -2.32 5.34 -3 5 C-2.01 3.35 -1.02 1.7 0 0 Z " fill="#5A866D" transform="translate(205,214)"/>
<path d="M0 0 C0.99 0.33 1.98 0.66 3 1 C0.03 3.475 0.03 3.475 -3 6 C-3.99 5.34 -4.98 4.68 -6 4 C-3.1875 1.9375 -3.1875 1.9375 0 0 Z M-5 6 C-3 7 -3 7 -3 7 Z " fill="#619474" transform="translate(169,201)"/>
<path d="M0 0 C4.16138263 -0.08159574 7.9472484 0.01751476 12 1 C12 1.33 12 1.66 12 2 C7.31034294 3.11658501 4.46236469 2.80619523 0 1 C0 0.67 0 0.34 0 0 Z " fill="#38714C" transform="translate(34,346)"/>
<path d="M0 0 C1.65 0 3.3 0 5 0 C2.3401439 3.44216672 -0.90288286 3.99504674 -5 5 C-4 3 -4 3 -1 2 C-0.67 1.34 -0.34 0.68 0 0 Z " fill="#639375" transform="translate(243,314)"/>
<path d="M0 0 C0 3.90838866 -1.50567876 5.11594107 -4 8 C-3.67 5.69 -3.34 3.38 -3 1 C-2.01 0.67 -1.02 0.34 0 0 Z " fill="#1C693A" transform="translate(319,249)"/>
<path d="M0 0 C0.99 0.66 1.98 1.32 3 2 C1.73392393 2.53229326 0.46189588 3.05044544 -0.8125 3.5625 C-1.52019531 3.85253906 -2.22789062 4.14257812 -2.95703125 4.44140625 C-5 5 -5 5 -8 4 C-5.36 2.68 -2.72 1.36 0 0 Z " fill="#1B6339" transform="translate(235,100)"/>
<path d="M0 0 C1.32 0.33 2.64 0.66 4 1 C3.34 3.31 2.68 5.62 2 8 C1.67 8 1.34 8 1 8 C0.67 5.36 0.34 2.72 0 0 Z " fill="#2E6046" transform="translate(98,163)"/>
<path d="M0 0 C0.99 0.33 1.98 0.66 3 1 C1.35 2.98 -0.3 4.96 -2 7 C-2.66 6.67 -3.32 6.34 -4 6 C-2.68 4.02 -1.36 2.04 0 0 Z " fill="#59886A" transform="translate(126,133)"/>
<path d="M0 0 C-4.75 3 -4.75 3 -7 3 C-7 2.01 -7 1.02 -7 0 C-3.86650268 -1.04449911 -3.01031744 -0.93423645 0 0 Z " fill="#22693C" transform="translate(266,90)"/>
<path d="M0 0 C-1 2 -1 2 -3 4 C-5.625 3.625 -5.625 3.625 -8 3 C-3.5 0 -3.5 0 0 0 Z " fill="#32724A" transform="translate(225,72)"/>
<path d="" fill="#A6A6A6" transform="translate(0,0)"/>
<path d="" fill="#A6A6A6" transform="translate(0,0)"/>
<path d="" fill="#A6A6A6" transform="translate(0,0)"/>
<path d="" fill="#A6A6A6" transform="translate(0,0)"/>
<path d="" fill="#A6A6A6" transform="translate(0,0)"/>
<path d="" fill="#A6A6A6" transform="translate(0,0)"/>
<path d="" fill="#A6A6A6" transform="translate(0,0)"/>
<path d="" fill="#A6A6A6" transform="translate(0,0)"/>
<path d="" fill="#A6A6A6" transform="translate(0,0)"/>
<path d="" fill="#A6A6A6" transform="translate(0,0)"/>
<path d="" fill="#A6A6A6" transform="translate(0,0)"/>
<path d="" fill="#A6A6A6" transform="translate(0,0)"/>
<path d="" fill="#A6A6A6" transform="translate(0,0)"/>
<path d="" fill="#A6A6A6" transform="translate(0,0)"/>
<path d="" fill="#A6A6A6" transform="translate(0,0)"/>
<path d="" fill="#A6A6A6" transform="translate(0,0)"/>
<path d="" fill="#A6A6A6" transform="translate(0,0)"/>
<path d="" fill="#A6A6A6" transform="translate(0,0)"/>
<path d="" fill="#A6A6A6" transform="translate(0,0)"/>
<path d="" fill="#A6A6A6" transform="translate(0,0)"/>
<path d="" fill="#A6A6A6" transform="translate(0,0)"/>
<path d="" fill="#A6A6A6" transform="translate(0,0)"/>
<path d="" fill="#A6A6A6" transform="translate(0,0)"/>
<path d="" fill="#A6A6A6" transform="translate(0,0)"/>
<path d="" fill="#A6A6A6" transform="translate(0,0)"/>
<path d="" fill="#A6A6A6" transform="translate(0,0)"/>
<path d="" fill="#A6A6A6" transform="translate(0,0)"/>
<path d="" fill="#A6A6A6" transform="translate(0,0)"/>
<path d="" fill="#A6A6A6" transform="translate(0,0)"/>
<path d="" fill="#A6A6A6" transform="translate(0,0)"/>
<path d="" fill="#A6A6A6" transform="translate(0,0)"/>
<path d="" fill="#A6A6A6" transform="translate(0,0)"/>
<path d="" fill="#A6A6A6" transform="translate(0,0)"/>
</svg>
